<svg width="721" height="120" viewBox="0 0 721 120" fill="none" xmlns="http://www.w3.org/2000/svg">
<path d="M9.74333 96C8.99122 96 8.37585 95.7607 7.89723 95.2821C7.41861 94.8035 7.1793 94.1881 7.1793 93.436V26.7711C7.1793 26.0189 7.41861 25.4036 7.89723 24.9249C8.37585 24.4463 8.99122 24.207 9.74333 24.207H37.64C46.4603 24.207 53.4003 26.2582 58.46 30.3607C63.5881 34.3948 66.1521 40.1382 66.1521 47.591C66.1521 52.4456 64.9556 56.548 62.5625 59.8984C60.2377 63.2487 57.1609 65.7786 53.3319 67.4879L67.4854 92.718C67.6905 93.1283 67.7931 93.5043 67.7931 93.8462C67.7931 94.3932 67.5538 94.906 67.0752 95.3846C66.6649 95.7949 66.1521 96 65.5367 96H51.9986C50.6995 96 49.7423 95.6923 49.1269 95.0769C48.5115 94.3932 48.0671 93.7778 47.7936 93.2308L36.1016 70.6673H25.5378V93.436C25.5378 94.1881 25.2985 94.8035 24.8199 95.2821C24.3412 95.7607 23.7259 96 22.9738 96H9.74333ZM25.5378 56.2062H37.4349C40.6485 56.2062 43.0416 55.4199 44.6142 53.8473C46.2552 52.2747 47.0757 50.1209 47.0757 47.3859C47.0757 44.7193 46.2894 42.5655 44.7168 40.9245C43.2125 39.2835 40.7853 38.463 37.4349 38.463H25.5378V56.2062ZM107.123 97.0256C100.833 97.0256 95.3626 96 90.7132 93.9488C86.0637 91.8975 82.4399 88.8207 79.8416 84.7182C77.2434 80.5474 75.8076 75.351 75.5341 69.1289C75.4657 66.1888 75.4315 63.2487 75.4315 60.3086C75.4315 57.3685 75.4657 54.3943 75.5341 51.3858C75.8076 45.2321 77.2434 40.0698 79.8416 35.899C82.5082 31.6598 86.1663 28.4804 90.8157 26.3608C95.4652 24.2412 100.901 23.1814 107.123 23.1814C113.277 23.1814 118.678 24.2412 123.328 26.3608C128.046 28.4804 131.738 31.6598 134.404 35.899C137.071 40.0698 138.507 45.2321 138.712 51.3858C138.849 54.3943 138.917 57.3685 138.917 60.3086C138.917 63.2487 138.849 66.1888 138.712 69.1289C138.438 75.351 137.003 80.5474 134.404 84.7182C131.806 88.8207 128.182 91.8975 123.533 93.9488C118.883 96 113.413 97.0256 107.123 97.0256ZM107.123 82.2568C110.747 82.2568 113.687 81.1628 115.943 78.9748C118.268 76.7868 119.499 73.2997 119.635 68.5135C119.772 65.5051 119.841 62.6675 119.841 60.0009C119.841 57.3344 119.772 54.5652 119.635 51.6935C119.499 48.4799 118.883 45.8817 117.789 43.8988C116.764 41.8476 115.328 40.3433 113.482 39.3861C111.636 38.4289 109.516 37.9502 107.123 37.9502C104.798 37.9502 102.713 38.4289 100.867 39.3861C99.0206 40.3433 97.5506 41.8476 96.4566 43.8988C95.3626 45.8817 94.7472 48.4799 94.6105 51.6935C94.5421 54.5652 94.5079 57.3344 94.5079 60.0009C94.5079 62.6675 94.5421 65.5051 94.6105 68.5135C94.8156 73.2997 96.0464 76.7868 98.3027 78.9748C100.559 81.1628 103.499 82.2568 107.123 82.2568ZM196.548 102.666C195.454 102.666 194.599 102.359 193.984 101.743C193.437 101.196 192.992 100.718 192.65 100.308L189.163 95.6923C186.497 96.5812 183.454 97.0256 180.035 97.0256C173.745 97.0256 168.275 96 163.625 93.9488C159.044 91.8975 155.421 88.8207 152.754 84.7182C150.156 80.5474 148.754 75.351 148.549 69.1289C148.481 66.1888 148.446 63.2487 148.446 60.3086C148.446 57.3685 148.481 54.3943 148.549 51.3858C148.754 45.2321 150.19 40.0698 152.857 35.899C155.523 31.6598 159.181 28.4804 163.831 26.3608C168.48 24.2412 173.882 23.1814 180.035 23.1814C186.257 23.1814 191.693 24.2412 196.343 26.3608C200.992 28.4804 204.65 31.6598 207.317 35.899C209.983 40.0698 211.419 45.2321 211.624 51.3858C211.761 54.3943 211.829 57.3685 211.829 60.3086C211.829 63.2487 211.761 66.1888 211.624 69.1289C211.214 77.6073 208.753 84.1713 204.24 88.8207L211.727 99.4871C211.795 99.5555 211.864 99.6922 211.932 99.8973C212 100.102 212.034 100.308 212.034 100.513C212.103 101.06 211.932 101.538 211.522 101.949C211.111 102.427 210.599 102.666 209.983 102.666H196.548ZM180.035 82.2568C183.659 82.2568 186.599 81.1628 188.856 78.9748C191.18 76.7868 192.411 73.2997 192.548 68.5135C192.685 65.5051 192.753 62.6675 192.753 60.0009C192.753 57.3344 192.685 54.5652 192.548 51.6935C192.479 48.4799 191.898 45.8817 190.804 43.8988C189.71 41.8476 188.24 40.3433 186.394 39.3861C184.548 38.4289 182.428 37.9502 180.035 37.9502C177.711 37.9502 175.625 38.4289 173.779 39.3861C171.933 40.3433 170.463 41.8476 169.369 43.8988C168.275 45.8817 167.694 48.4799 167.625 51.6935C167.557 54.5652 167.523 57.3344 167.523 60.0009C167.523 62.6675 167.557 65.5051 167.625 68.5135C167.762 73.2997 168.959 76.7868 171.215 78.9748C173.54 81.1628 176.48 82.2568 180.035 82.2568ZM269.563 102.666C268.469 102.666 267.614 102.359 266.999 101.743C266.452 101.196 266.007 100.718 265.665 100.308L262.178 95.6923C259.512 96.5812 256.469 97.0256 253.05 97.0256C246.76 97.0256 241.29 96 236.64 93.9488C232.059 91.8975 228.435 88.8207 225.769 84.7182C223.171 80.5474 221.769 75.351 221.564 69.1289C221.496 66.1888 221.461 63.2487 221.461 60.3086C221.461 57.3685 221.496 54.3943 221.564 51.3858C221.769 45.2321 223.205 40.0698 225.871 35.899C228.538 31.6598 232.196 28.4804 236.846 26.3608C241.495 24.2412 246.897 23.1814 253.05 23.1814C259.272 23.1814 264.708 24.2412 269.357 26.3608C274.007 28.4804 277.665 31.6598 280.332 35.899C282.998 40.0698 284.434 45.2321 284.639 51.3858C284.776 54.3943 284.844 57.3685 284.844 60.3086C284.844 63.2487 284.776 66.1888 284.639 69.1289C284.229 77.6073 281.767 84.1713 277.255 88.8207L284.742 99.4871C284.81 99.5555 284.878 99.6922 284.947 99.8973C285.015 100.102 285.049 100.308 285.049 100.513C285.118 101.06 284.947 101.538 284.537 101.949C284.126 102.427 283.614 102.666 282.998 102.666H269.563ZM253.05 82.2568C256.674 82.2568 259.614 81.1628 261.871 78.9748C264.195 76.7868 265.426 73.2997 265.563 68.5135C265.699 65.5051 265.768 62.6675 265.768 60.0009C265.768 57.3344 265.699 54.5652 265.563 51.6935C265.494 48.4799 264.913 45.8817 263.819 43.8988C262.725 41.8476 261.255 40.3433 259.409 39.3861C257.563 38.4289 255.443 37.9502 253.05 37.9502C250.726 37.9502 248.64 38.4289 246.794 39.3861C244.948 40.3433 243.478 41.8476 242.384 43.8988C241.29 45.8817 240.709 48.4799 240.64 51.6935C240.572 54.5652 240.538 57.3344 240.538 60.0009C240.538 62.6675 240.572 65.5051 240.64 68.5135C240.777 73.2997 241.974 76.7868 244.23 78.9748C246.555 81.1628 249.495 82.2568 253.05 82.2568ZM299.399 96C298.647 96 298.032 95.7607 297.553 95.2821C297.074 94.8035 296.835 94.1881 296.835 93.436V26.7711C296.835 26.0189 297.074 25.4036 297.553 24.9249C298.032 24.4463 298.647 24.207 299.399 24.207H347.295C348.047 24.207 348.663 24.4463 349.141 24.9249C349.62 25.4036 349.859 26.0189 349.859 26.7711V36.4118C349.859 37.1639 349.62 37.7793 349.141 38.2579C348.663 38.7365 348.047 38.9759 347.295 38.9759H314.578V52.8216H345.039C345.791 52.8216 346.406 53.0951 346.885 53.6421C347.364 54.1208 347.603 54.7361 347.603 55.4882V64.4111C347.603 65.0948 347.364 65.7102 346.885 66.2572C346.406 66.7358 345.791 66.9751 345.039 66.9751H314.578V81.2312H348.116C348.868 81.2312 349.483 81.4705 349.962 81.9491C350.441 82.4277 350.68 83.0431 350.68 83.7952V93.436C350.68 94.1881 350.441 94.8035 349.962 95.2821C349.483 95.7607 348.868 96 348.116 96H299.399ZM380.697 96C379.945 96 379.329 95.7607 378.851 95.2821C378.372 94.8035 378.133 94.1881 378.133 93.436V40.3092H359.877C359.125 40.3092 358.509 40.0698 358.031 39.5912C357.552 39.0442 357.313 38.4289 357.313 37.7451V26.7711C357.313 26.0189 357.552 25.4036 358.031 24.9249C358.509 24.4463 359.125 24.207 359.877 24.207H415.055C415.807 24.207 416.422 24.4463 416.901 24.9249C417.379 25.4036 417.619 26.0189 417.619 26.7711V37.7451C417.619 38.4289 417.379 39.0442 416.901 39.5912C416.422 40.0698 415.807 40.3092 415.055 40.3092H396.799V93.436C396.799 94.1881 396.56 94.8035 396.081 95.2821C395.602 95.7607 394.987 96 394.235 96H380.697Z" fill="black"/>
<path d="M429 96C428.316 96 427.735 95.7949 427.256 95.3846C426.846 94.9744 426.641 94.4274 426.641 93.7436V26.5659C426.641 25.8138 426.846 25.2326 427.256 24.8224C427.735 24.4121 428.316 24.207 429 24.207H431.564C432.247 24.207 432.76 24.3779 433.102 24.7198C433.444 25.0617 433.649 25.3352 433.718 25.5403L456.999 70.8725L480.383 25.5403C480.52 25.3352 480.725 25.0617 480.998 24.7198C481.34 24.3779 481.853 24.207 482.537 24.207H484.998C485.75 24.207 486.332 24.4121 486.742 24.8224C487.152 25.2326 487.357 25.8138 487.357 26.5659V93.7436C487.357 94.4274 487.152 94.9744 486.742 95.3846C486.332 95.7949 485.75 96 484.998 96H483.152C482.468 96 481.921 95.7949 481.511 95.3846C481.101 94.9744 480.896 94.4274 480.896 93.7436V38.1554L461.307 76.7185C461.033 77.4022 460.623 77.915 460.076 78.2569C459.597 78.5987 458.948 78.7697 458.127 78.7697H455.871C455.05 78.7697 454.401 78.5987 453.922 78.2569C453.443 77.915 453.033 77.4022 452.691 76.7185L433.102 38.1554V93.7436C433.102 94.4274 432.897 94.9744 432.487 95.3846C432.077 95.7949 431.53 96 430.846 96H429ZM508.923 96C508.239 96 507.692 95.7949 507.282 95.3846C506.872 94.9744 506.667 94.4274 506.667 93.7436V26.5659C506.667 25.8138 506.872 25.2326 507.282 24.8224C507.692 24.4121 508.239 24.207 508.923 24.207H548.922C549.674 24.207 550.255 24.4121 550.666 24.8224C551.076 25.2326 551.281 25.8138 551.281 26.5659V28.1043C551.281 28.7881 551.076 29.3351 550.666 29.7453C550.255 30.1556 549.674 30.3607 548.922 30.3607H513.128V56.5139H546.666C547.418 56.5139 547.999 56.719 548.409 57.1292C548.819 57.5395 549.025 58.1207 549.025 58.8728V60.4112C549.025 61.0949 548.819 61.6419 548.409 62.0522C547.999 62.4624 547.418 62.6675 546.666 62.6675H513.128V89.8463H549.743C550.495 89.8463 551.076 90.0514 551.486 90.4617C551.896 90.8719 552.101 91.4531 552.101 92.2052V93.7436C552.101 94.4274 551.896 94.9744 551.486 95.3846C551.076 95.7949 550.495 96 549.743 96H508.923ZM569.619 96C568.935 96 568.388 95.7949 567.978 95.3846C567.567 94.9744 567.362 94.4274 567.362 93.7436V26.5659C567.362 25.8138 567.567 25.2326 567.978 24.8224C568.388 24.4121 568.935 24.207 569.619 24.207H591.464C598.712 24.207 604.387 25.2668 608.489 27.3864C612.592 29.506 615.498 32.6512 617.207 36.8221C618.985 40.9245 619.908 45.95 619.976 51.8986C620.045 54.9754 620.079 57.7104 620.079 60.1035C620.079 62.4282 620.045 65.129 619.976 68.2059C619.839 74.4963 618.916 79.6927 617.207 83.7952C615.498 87.8976 612.626 90.9745 608.592 93.0257C604.558 95.0086 599.02 96 591.977 96H569.619ZM573.824 89.8463H591.464C596.934 89.8463 601.242 89.1284 604.387 87.6925C607.6 86.1883 609.891 83.8294 611.259 80.6158C612.694 77.3338 613.446 73.0262 613.515 67.6931C613.583 65.6418 613.617 63.8641 613.617 62.3599C613.617 60.7873 613.617 59.2488 613.617 57.7446C613.617 56.2404 613.583 54.4626 613.515 52.4114C613.378 44.8902 611.635 39.3519 608.284 35.7965C604.934 32.1726 599.156 30.3607 590.951 30.3607H573.824V89.8463ZM639.028 96C638.344 96 637.797 95.7949 637.387 95.3846C636.977 94.9744 636.771 94.4274 636.771 93.7436V26.4634C636.771 25.7796 636.977 25.2326 637.387 24.8224C637.797 24.4121 638.344 24.207 639.028 24.207H640.976C641.66 24.207 642.207 24.4121 642.617 24.8224C643.028 25.2326 643.233 25.7796 643.233 26.4634V93.7436C643.233 94.4274 643.028 94.9744 642.617 95.3846C642.207 95.7949 641.66 96 640.976 96H639.028ZM657.384 96C656.837 96 656.358 95.7949 655.948 95.3846C655.538 94.9744 655.333 94.4958 655.333 93.9488C655.333 93.6069 655.401 93.2308 655.538 92.8206L681.486 26.2582C681.759 25.5745 682.101 25.0617 682.511 24.7198C682.99 24.3779 683.64 24.207 684.46 24.207H687.947C688.768 24.207 689.383 24.3779 689.793 24.7198C690.272 25.0617 690.648 25.5745 690.921 26.2582L716.87 92.8206C717.006 93.2308 717.075 93.6069 717.075 93.9488C717.075 94.4958 716.87 94.9744 716.459 95.3846C716.049 95.7949 715.57 96 715.023 96H712.972C712.288 96 711.776 95.8291 711.434 95.4872C711.092 95.0769 710.853 94.7351 710.716 94.4616L704.357 78.0518H668.05L661.691 94.4616C661.623 94.7351 661.384 95.0769 660.974 95.4872C660.632 95.8291 660.119 96 659.435 96H657.384ZM670.512 71.8981H701.896L686.204 31.4889L670.512 71.8981Z" fill="black"/>
</svg>
