<svg width="249" height="380" viewBox="0 0 249 380" fill="none" xmlns="http://www.w3.org/2000/svg">
<path d="M12.4742 379.999C9.69511 379.999 7.4213 379.103 5.65278 377.311C3.88426 375.519 3 373.216 3 370.4V120.833C3 118.017 3.88426 115.714 5.65278 113.922C7.4213 112.13 9.69511 111.234 12.4742 111.234H115.554C148.145 111.234 173.788 118.913 192.484 134.271C211.433 149.373 220.907 170.874 220.907 198.775C220.907 216.948 216.486 232.306 207.643 244.849C199.053 257.391 187.684 266.862 173.536 273.261L225.833 367.712C226.591 369.248 226.97 370.656 226.97 371.936C226.97 373.984 226.086 375.903 224.318 377.695C222.802 379.231 220.907 379.999 218.633 379.999H168.609C163.809 379.999 160.272 378.847 157.998 376.543C155.724 373.984 154.082 371.68 153.071 369.632L109.869 285.163H70.8353V370.4C70.8353 373.216 69.9511 375.519 68.1826 377.311C66.414 379.103 64.1402 379.999 61.3611 379.999H12.4742ZM70.8353 231.027H114.796C126.67 231.027 135.513 228.083 141.323 222.196C147.387 216.308 150.419 208.246 150.419 198.007C150.419 188.024 147.513 179.961 141.702 173.818C136.144 167.675 127.175 164.603 114.796 164.603H70.8353V231.027Z" fill="black"/>
<path d="M116.812 123.818C144.557 130.973 178.022 142.481 218.41 170.728C222.122 173.325 168.223 48.8735 168.223 48.8735L142.662 82.9957L141.644 27.5327L113.929 75.5853L108.059 33.357C108.059 33.357 0.693309 116.219 5.19897 115.741C54.2108 110.55 89.051 116.658 116.812 123.818Z" fill="#5EE7FF"/>
<path d="M182.506 82.4054C182.506 82.4054 187.449 122.003 154.93 113.315C98.7492 98.3073 31.4391 102.844 18.94 110.577C18.94 110.577 95.9543 106.485 213.382 163.233L182.506 82.4054Z" fill="#FD80F2"/>
<path d="M106.854 62.7562L110.748 100.193L136.419 47.615L140.245 35.3707L117.177 68.1953L106.854 62.7562Z" fill="#FD80F2"/>
<path d="M136.778 70.5613L137.316 106.162L166.75 59.8742L167.549 51.7834L145.673 74.2769L136.778 70.5613Z" fill="#FD80F2"/>
<path d="M116.812 123.818C144.557 130.973 178.022 142.481 218.41 170.728C222.122 173.325 168.223 48.8735 168.223 48.8735L142.662 82.9957L141.644 27.5327L113.929 75.5853L108.059 33.357C108.059 33.357 0.693309 116.219 5.19897 115.741C54.2108 110.55 89.051 116.658 116.812 123.818Z" stroke="black" stroke-width="9.87351" stroke-miterlimit="10" stroke-linecap="round" stroke-linejoin="round"/>
</svg>
