<svg width="283" height="361" viewBox="0 0 283 361" fill="none" xmlns="http://www.w3.org/2000/svg">
<path d="M141.163 258.375C291.602 258.375 221.983 81.4469 207.252 75.3249C178.99 63.5854 157.963 61.8027 141.163 61.8027C124.362 61.8027 103.335 63.5854 75.0734 75.3249C60.3424 81.4382 -9.27731 258.375 141.163 258.375Z" fill="#8B6EFF"/>
<path d="M141.161 258.378C291.601 258.378 221.981 81.4501 207.25 75.3281C207.25 75.3281 270.087 211.011 166.109 235.768C106.334 249.995 55.2188 215.194 55.2188 215.194C67.2626 240.151 92.8722 258.378 141.161 258.378Z" fill="#453199"/>
<path d="M140.957 61.7786C158.585 61.7786 180.289 63.4814 208.689 74.0352C211.3 75.0055 160.07 9.57375 160.07 9.57375L150.085 33.6713L140.957 1L131.829 33.6713L121.844 9.57375C121.844 9.57375 70.6146 75.0055 73.2254 74.0352C101.626 63.4814 123.319 61.7786 140.957 61.7786Z" fill="#5EE7FF"/>
<path d="M173.749 27.0898C173.749 27.0898 182.745 49.9576 162.112 49.778C126.465 49.4685 87.2044 62.5344 80.9688 69.0723C80.9688 69.0723 126.058 54.7787 204.451 70.5696L173.749 27.0898Z" fill="#FD80F2"/>
<path d="M126.184 26.955L134.239 48.8254L141.439 13.2885L141.836 5.3457L133.155 28.6219L126.184 26.955Z" fill="#FD80F2"/>
<path d="M144.438 27.1315L150.338 47.9624L160.96 16.3131L160.178 11.4395L150.419 27.9667L144.438 27.1315Z" fill="#FD80F2"/>
<path d="M47.7058 148.582C47.7058 148.582 4 150.26 4 200.306C4 200.306 8.40884 184.392 46.8797 184.392C46.8797 184.401 45.1666 168.957 47.7058 148.582Z" fill="#8B6EFF"/>
<path d="M4 200.295C4 200.295 8.40884 184.381 46.8797 184.381C46.8797 184.381 46.4275 180.268 46.3319 173.494C46.3319 173.503 6.97401 173.503 4 200.295Z" fill="#453199"/>
<path d="M235.444 184.434C235.444 184.434 279.15 182.756 279.15 132.711C279.15 132.711 273.08 148.625 234.609 148.625C234.618 148.625 237.966 166.156 235.444 184.434Z" fill="#8B6EFF"/>
<path d="M235.441 184.434C235.441 184.434 279.147 182.756 279.147 132.711C279.147 132.711 275.26 172.321 236.328 173.538C236.328 173.538 235.954 180.73 235.441 184.434Z" fill="#453199"/>
<path d="M106.33 161.885C116.089 161.885 124 153.974 124 144.215C124 134.456 116.089 126.545 106.33 126.545C96.5714 126.545 88.6602 134.456 88.6602 144.215C88.6602 153.974 96.5714 161.885 106.33 161.885Z" fill="black"/>
<path d="M112.929 142.668C115.71 142.668 117.964 140.413 117.964 137.633C117.964 134.852 115.71 132.598 112.929 132.598C110.149 132.598 107.895 134.852 107.895 137.633C107.895 140.413 110.149 142.668 112.929 142.668Z" fill="white"/>
<path d="M176.28 161.885C186.038 161.885 193.95 153.974 193.95 144.215C193.95 134.456 186.038 126.545 176.28 126.545C166.521 126.545 158.609 134.456 158.609 144.215C158.609 153.974 166.521 161.885 176.28 161.885Z" fill="black"/>
<path d="M182.867 142.668C185.648 142.668 187.902 140.413 187.902 137.633C187.902 134.852 185.648 132.598 182.867 132.598C180.086 132.598 177.832 134.852 177.832 137.633C177.832 140.413 180.086 142.668 182.867 142.668Z" fill="white"/>
<path d="M141.163 258.363C291.602 258.363 221.983 81.4352 207.252 75.3132C178.99 63.5737 157.963 61.791 141.163 61.791C124.362 61.791 103.335 63.5737 75.0734 75.3132C60.3424 81.4265 -9.27731 258.363 141.163 258.363Z" stroke="black" stroke-width="6.08716" stroke-miterlimit="10" stroke-linecap="round" stroke-linejoin="round"/>
<path d="M140.968 62.935C158.144 62.935 179.291 64.5973 206.963 74.8998C209.507 75.847 159.591 11.9731 159.591 11.9731L149.862 35.4969L140.968 3.60352L132.074 35.4969L122.345 11.9731C122.345 11.9731 72.4291 75.847 74.9729 74.8998C102.645 64.5973 123.782 62.935 140.968 62.935Z" stroke="black" stroke-width="6.08716" stroke-miterlimit="10" stroke-linecap="round" stroke-linejoin="round"/>
<path d="M47.7058 148.574C47.7058 148.574 4 150.253 4 200.298C4 200.298 8.40884 184.384 46.8797 184.384C46.8797 184.393 45.1666 168.949 47.7058 148.574Z" stroke="black" stroke-width="6.08716" stroke-miterlimit="10" stroke-linecap="round" stroke-linejoin="round"/>
<path d="M235.444 184.432C235.444 184.432 279.15 182.754 279.15 132.709C279.15 132.709 273.08 148.623 234.609 148.623C234.618 148.623 237.966 166.154 235.444 184.432Z" stroke="black" stroke-width="6.08716" stroke-miterlimit="10" stroke-linecap="round" stroke-linejoin="round"/>
<path d="M106.33 161.874C116.089 161.874 124 153.962 124 144.203C124 134.444 116.089 126.533 106.33 126.533C96.5714 126.533 88.6602 134.444 88.6602 144.203C88.6602 153.962 96.5714 161.874 106.33 161.874Z" stroke="black" stroke-width="6.08716" stroke-miterlimit="10" stroke-linecap="round" stroke-linejoin="round"/>
<path d="M112.918 142.664C115.698 142.664 117.953 140.409 117.953 137.629C117.953 134.848 115.698 132.594 112.918 132.594C110.137 132.594 107.883 134.848 107.883 137.629C107.883 140.409 110.137 142.664 112.918 142.664Z" stroke="black" stroke-width="1.73371" stroke-miterlimit="10" stroke-linecap="round" stroke-linejoin="round"/>
<path d="M176.28 161.874C186.038 161.874 193.95 153.962 193.95 144.203C193.95 134.444 186.038 126.533 176.28 126.533C166.521 126.533 158.609 134.444 158.609 144.203C158.609 153.962 166.521 161.874 176.28 161.874Z" stroke="black" stroke-width="6.08716" stroke-miterlimit="10" stroke-linecap="round" stroke-linejoin="round"/>
<path d="M182.875 142.664C185.656 142.664 187.91 140.409 187.91 137.629C187.91 134.848 185.656 132.594 182.875 132.594C180.094 132.594 177.84 134.848 177.84 137.629C177.84 140.409 180.094 142.664 182.875 142.664Z" stroke="black" stroke-width="1.73371" stroke-miterlimit="10" stroke-linecap="round" stroke-linejoin="round"/>
<path d="M167.326 190.398C167.326 190.398 161.874 207.06 142.152 207.06C127.386 207.06 120.742 202.077 120.742 202.077" stroke="black" stroke-width="6.08716" stroke-miterlimit="10" stroke-linecap="round" stroke-linejoin="round"/>
<path d="M75.832 271.235C75.832 271.235 83.3801 254.269 101.598 261.713C119.825 269.165 114.286 285.374 114.286 285.374C114.286 285.374 90.963 284.896 75.832 271.235Z" fill="#8B6EFF"/>
<path d="M72.9217 280.08C87.3048 294.533 111.375 294.22 111.375 294.22C111.375 294.22 116.193 294.063 114.271 285.376C114.271 285.376 90.9484 284.898 75.8174 271.236C75.8261 271.236 68.8085 275.941 72.9217 280.08Z" fill="#8B6EFF"/>
<path d="M72.927 280.08C87.3101 294.533 111.381 294.22 111.381 294.22C111.381 294.22 116.198 294.063 114.276 285.376C114.276 285.376 112.911 290.446 101.598 288.576C91.3798 286.889 70.9791 278.115 72.927 280.08Z" fill="#453199"/>
<path d="M114.829 276.652L118.038 255.86C118.038 255.86 115.09 249.243 106.559 246.182C98.0286 243.121 87.2108 247.573 87.2108 247.573L79.1758 266.278" fill="#8B6EFF"/>
<path d="M114.829 276.652L118.038 255.86C118.038 255.86 115.09 249.243 106.559 246.182C98.0287 243.121 87.2109 247.573 87.2109 247.573C87.2109 247.573 103.925 246.764 108.646 254.704C114.681 264.843 114.829 276.652 114.829 276.652Z" fill="#453199"/>
<path d="M75.832 271.235C75.832 271.235 100.242 279.844 105.763 276.609C110.955 273.565 101.598 261.713 101.598 261.713C119.825 269.165 114.286 285.375 114.286 285.375C114.286 285.375 90.963 284.896 75.832 271.235Z" fill="#453199"/>
<path d="M100.233 293.662C100.233 293.662 85.5104 293.401 80.258 286.627C75.0057 279.853 51.1527 295.393 70.5273 357.995C70.5273 358.004 132.086 295.584 100.233 293.662Z" fill="#FD80F2"/>
<path d="M100.241 293.66C100.241 293.66 85.5183 293.399 80.2659 286.625C80.2659 286.625 81.8312 288.886 84.4313 291.712C92.0141 299.965 110.076 310.765 70.5352 357.993C70.5352 358.001 132.094 295.582 100.241 293.66Z" fill="#5EE7FF"/>
<path d="M86.6804 300.602C86.6804 300.602 70.0624 296.88 77.3322 330.638C77.3322 330.646 99.733 307.889 86.6804 300.602Z" fill="#5EE7FF"/>
<path d="M86.6919 300.596C86.6919 300.596 94.3008 306.865 77.3438 330.632C77.3438 330.64 99.7445 307.883 86.6919 300.596Z" fill="#E0E0E0"/>
<path d="M75.7969 271.235C75.7969 271.235 83.345 254.269 101.563 261.713C119.79 269.165 114.25 285.374 114.25 285.374C114.25 285.374 90.9278 284.896 75.7969 271.235Z" stroke="black" stroke-width="6.08716" stroke-miterlimit="10" stroke-linecap="round" stroke-linejoin="round"/>
<path d="M72.9061 280.08C87.2892 294.533 111.36 294.22 111.36 294.22C111.36 294.22 116.177 294.063 114.255 285.376C114.255 285.376 90.9328 284.898 75.8018 271.236C75.8105 271.236 68.7929 275.941 72.9061 280.08Z" stroke="black" stroke-width="6.08716" stroke-miterlimit="10" stroke-linecap="round" stroke-linejoin="round"/>
<path d="M114.802 276.652L118.011 255.86C118.011 255.86 115.063 249.243 106.532 246.182C98.0013 243.121 87.1835 247.573 87.1835 247.573L79.1484 266.278" stroke="black" stroke-width="6.08716" stroke-miterlimit="10" stroke-linecap="round" stroke-linejoin="round"/>
<path d="M100.21 293.666C100.21 293.666 89.7313 292.083 80.2353 286.631C72.809 282.361 51.13 295.396 70.5046 357.998C70.5046 358.007 132.063 295.587 100.21 293.666Z" stroke="black" stroke-width="6.08716" stroke-miterlimit="10" stroke-linecap="round" stroke-linejoin="round"/>
<path d="M86.6648 300.602C86.6648 300.602 70.0468 296.88 77.3166 330.638C77.3166 330.646 99.7174 307.889 86.6648 300.602Z" stroke="black" stroke-width="6.08716" stroke-miterlimit="10" stroke-linecap="round" stroke-linejoin="round"/>
<path d="M209.472 271.235C209.472 271.235 201.924 254.269 183.706 261.713C165.479 269.165 171.018 285.374 171.018 285.374C171.018 285.374 194.341 284.896 209.472 271.235Z" fill="#8B6EFF"/>
<path d="M212.361 280.08C197.978 294.533 173.907 294.22 173.907 294.22C173.907 294.22 169.09 294.063 171.011 285.376C171.011 285.376 194.334 284.898 209.465 271.236C209.456 271.236 216.474 275.941 212.361 280.08Z" fill="#8B6EFF"/>
<path d="M212.361 280.08C197.978 294.533 173.907 294.22 173.907 294.22C173.907 294.22 169.09 294.063 171.011 285.376C171.011 285.376 172.377 290.446 183.69 288.576C193.908 286.889 214.309 278.115 212.361 280.08Z" fill="#453199"/>
<path d="M170.467 276.652L167.258 255.86C167.258 255.86 170.206 249.243 178.736 246.182C187.267 243.121 198.085 247.573 198.085 247.573L206.12 266.278" fill="#8B6EFF"/>
<path d="M170.467 276.652L167.258 255.86C167.258 255.86 170.206 249.243 178.736 246.182C187.267 243.121 198.085 247.573 198.085 247.573C198.085 247.573 181.371 246.764 176.649 254.704C170.614 264.843 170.467 276.652 170.467 276.652Z" fill="#453199"/>
<path d="M209.472 271.235C209.472 271.235 185.062 279.844 179.54 276.609C174.349 273.565 183.706 261.713 183.706 261.713C165.479 269.165 171.018 285.375 171.018 285.375C171.018 285.375 194.341 284.896 209.472 271.235Z" fill="#453199"/>
<path d="M185.054 293.666C185.054 293.666 199.776 293.405 205.029 286.63C210.281 279.865 234.134 295.396 214.76 357.998C214.76 358.007 153.201 295.587 185.054 293.666Z" fill="#FD80F2"/>
<path d="M185.054 293.66C185.054 293.66 199.776 293.399 205.029 286.625C205.029 286.625 203.464 288.886 200.863 291.712C193.281 299.965 175.219 310.765 214.76 357.993C214.76 358.001 153.201 295.582 185.054 293.66Z" fill="#5EE7FF"/>
<path d="M198.608 300.602C198.608 300.602 215.226 296.88 207.957 330.638C207.957 330.646 185.556 307.889 198.608 300.602Z" fill="#5EE7FF"/>
<path d="M198.608 300.596C198.608 300.596 191 306.865 207.957 330.632C207.957 330.64 185.556 307.883 198.608 300.596Z" fill="#E0E0E0"/>
<path d="M209.472 271.235C209.472 271.235 201.924 254.269 183.706 261.713C165.479 269.165 171.018 285.374 171.018 285.374C171.018 285.374 194.341 284.896 209.472 271.235Z" stroke="black" stroke-width="6.08716" stroke-miterlimit="10" stroke-linecap="round" stroke-linejoin="round"/>
<path d="M212.361 280.08C197.978 294.533 173.907 294.22 173.907 294.22C173.907 294.22 169.09 294.063 171.011 285.376C171.011 285.376 194.334 284.898 209.465 271.236C209.456 271.236 216.474 275.941 212.361 280.08Z" stroke="black" stroke-width="6.08716" stroke-miterlimit="10" stroke-linecap="round" stroke-linejoin="round"/>
<path d="M170.467 276.652L167.258 255.86C167.258 255.86 170.206 249.243 178.736 246.182C187.267 243.121 198.085 247.573 198.085 247.573L206.12 266.278" stroke="black" stroke-width="6.08716" stroke-miterlimit="10" stroke-linecap="round" stroke-linejoin="round"/>
<path d="M185.054 293.666C185.054 293.666 195.533 292.083 205.029 286.631C212.455 282.361 234.134 295.396 214.76 357.998C214.76 358.007 153.201 295.587 185.054 293.666Z" stroke="black" stroke-width="6.08716" stroke-miterlimit="10" stroke-linecap="round" stroke-linejoin="round"/>
<path d="M198.608 300.602C198.608 300.602 215.226 296.88 207.957 330.638C207.957 330.646 185.556 307.889 198.608 300.602Z" stroke="black" stroke-width="6.08716" stroke-miterlimit="10" stroke-linecap="round" stroke-linejoin="round"/>
</svg>
